<svg width="510" height="140" viewBox="0 0 510 140" fill="none" xmlns="http://www.w3.org/2000/svg">
<path fill-rule="evenodd" clip-rule="evenodd" d="M27.4849 9.13957C31.4131 -2.95754 48.4849 -3.07637 52.5812 8.96486L57.7005 24.0134H59.517L64.3468 9.13957C68.2751 -2.95754 85.3469 -3.07637 89.4432 8.96486L94.5782 24.0596C101.891 24.5701 108.174 28.8168 111.53 34.9035H114.628C126.25 34.9035 135.671 44.3247 135.671 55.9464V77.953C135.671 92.9158 126.872 105.812 114.178 111.768V122.94C114.178 132.094 106.757 139.514 97.6027 139.514H36.0806C26.9266 139.514 19.5058 132.094 19.5058 122.94V112.446C8.01916 107.355 0 95.8558 0 82.4723V56.785C0 42.4265 9.22972 30.2351 22.0747 25.8005L27.4849 9.13957ZM102.846 41.9472L102.864 42.0038C103.164 42.9662 103.325 43.9897 103.325 45.0508V64.2244C103.325 67.2092 105.745 69.6289 108.73 69.6289C111.715 69.6289 114.134 67.2092 114.134 64.2244V45.7125H114.628C120.28 45.7125 124.862 50.2943 124.862 55.9464V77.953C124.862 89.5581 117.406 99.4358 107.007 103.031L103.369 104.288V122.94C103.369 126.124 100.787 128.705 97.6027 128.705H36.0806C32.8963 128.705 30.3148 126.124 30.3148 122.94V104.67L26.4603 103.516C17.4017 100.804 10.809 92.4011 10.809 82.4723V56.785C10.809 46.4416 17.9643 37.7562 27.6016 35.433L30.5414 34.7244L37.7654 12.4779C38.4827 10.2689 41.6001 10.2472 42.3482 12.446L49.9603 34.8223H67.3716L74.6274 12.4779C75.3447 10.2689 78.4621 10.2472 79.2101 12.446L86.8223 34.8223H93.0913C97.6518 34.8223 101.529 37.8092 102.846 41.9472ZM443.569 45.864C441.622 45.864 439.989 45.2045 438.671 43.8854C437.352 42.5664 436.692 40.9333 436.692 38.9861C436.692 37.0389 437.352 35.4058 438.671 34.0867C439.989 32.7676 441.622 32.1081 443.569 32.1081C445.453 32.1081 447.055 32.7676 448.373 34.0867C449.692 35.4058 450.352 37.0389 450.352 38.9861C450.352 40.9333 449.692 42.5664 448.373 43.8854C447.055 45.2045 445.453 45.864 443.569 45.864ZM448.845 52.742V104.657H438.105V52.742H448.845ZM351.62 104.657V34.9347H340.881V104.657H351.62ZM283.643 77.9052C283.643 72.5661 284.71 67.8866 286.845 63.8666C289.043 59.7838 292.058 56.6432 295.889 54.4447C299.72 52.2463 304.116 51.1471 309.077 51.1471C315.358 51.1471 320.539 52.6546 324.621 55.6696C328.766 58.6217 331.561 63.9821 333.005 69.5096L321.418 68.3891C320.476 65.8138 318.969 63.8038 316.896 62.3591C314.824 60.9144 312.217 60.1921 309.077 60.1921C304.681 60.1921 301.164 61.7624 298.527 64.903C295.952 67.9808 294.664 72.3149 294.664 77.9052C294.664 83.4955 295.952 87.861 298.527 91.0016C301.164 94.1422 304.681 95.7125 309.077 95.7125C315.295 95.7125 319.408 92.9802 321.418 87.5155L333.005 88.636C331.498 93.9122 328.672 97.0002 324.527 100.141C320.382 103.219 315.232 104.758 309.077 104.758C304.116 104.758 299.72 103.658 295.889 101.46C292.058 99.1986 289.043 96.058 286.845 92.038C284.71 87.9552 283.643 83.2443 283.643 77.9052ZM207.637 54.4379C204.434 52.742 200.791 51.894 196.709 51.894C193.632 51.894 190.712 52.4908 187.948 53.6842C185.248 54.8776 183.018 56.5422 181.26 58.6778V52.742H170.521V104.657H181.26V75.6372C181.26 70.9891 182.422 67.4401 184.745 64.9904C187.132 62.4779 190.335 61.2217 194.354 61.2217C198.374 61.2217 201.545 62.4779 203.869 64.9904C206.192 67.4401 207.354 70.9891 207.354 75.6372V104.657H217.999V74.0355C217.999 69.3245 217.089 65.3045 215.267 61.9755C213.446 58.6464 210.903 56.1339 207.637 54.4379ZM275.879 104.657V52.742H265.14V81.6672C265.14 86.3153 263.946 89.8956 261.56 92.4081C259.236 94.8578 256.065 96.0826 252.046 96.0826C248.026 96.0826 244.855 94.8578 242.531 92.4081C240.207 89.8956 239.045 86.3153 239.045 81.6672V52.742H228.401V83.2689C228.401 87.9798 229.311 91.9998 231.132 95.3289C233.016 98.658 235.56 101.17 238.763 102.866C242.029 104.562 245.702 105.41 249.785 105.41C252.862 105.41 255.751 104.814 258.451 103.62C261.215 102.364 263.444 100.668 265.14 98.5323V104.657H275.879ZM410.466 76.6803C410.466 78.6275 410.341 80.3863 410.09 81.9566H370.43C370.744 86.1022 372.283 89.4313 375.046 91.9438C377.809 94.4563 381.201 95.7125 385.22 95.7125C390.998 95.7125 395.08 93.2943 397.466 88.4577H409.053C407.483 93.2314 404.626 97.1572 400.481 100.235C396.399 103.25 391.312 104.758 385.22 104.758C380.259 104.758 375.8 103.658 371.843 101.46C367.949 99.1986 364.872 96.058 362.611 92.038C360.413 87.9552 359.314 83.2443 359.314 77.9052C359.314 72.5661 360.382 67.8866 362.517 63.8666C364.715 59.7838 367.761 56.6432 371.655 54.4447C375.611 52.2463 380.133 51.1471 385.22 51.1471C390.118 51.1471 394.483 52.2149 398.314 54.3505C402.145 56.4861 405.128 59.5011 407.263 63.3955C409.399 67.2271 410.466 71.6553 410.466 76.6803ZM399.256 73.2885C399.193 69.3313 397.78 66.1592 395.017 63.7724C392.254 61.3855 388.831 60.1921 384.749 60.1921C381.044 60.1921 377.872 61.3855 375.234 63.7724C372.597 66.0964 371.027 69.2685 370.524 73.2885H399.256ZM417.643 102.777C418.962 104.096 420.595 104.756 422.542 104.756C424.426 104.756 426.028 104.096 427.346 102.777C428.665 101.458 429.325 99.8251 429.325 97.8779C429.325 95.9307 428.665 94.2976 427.346 92.9785C426.028 91.6594 424.426 90.9999 422.542 90.9999C420.595 90.9999 418.962 91.6594 417.643 92.9785C416.325 94.2976 415.665 95.9307 415.665 97.8779C415.665 99.8251 416.325 101.458 417.643 102.777ZM469.35 101.46C473.306 103.658 477.734 104.758 482.633 104.758C487.594 104.758 492.116 103.658 496.198 101.46C500.343 99.1986 503.608 96.0266 505.995 91.9438C508.381 87.861 509.575 83.1814 509.575 77.9052C509.575 72.6289 508.413 67.9494 506.089 63.8666C503.765 59.7838 500.594 56.6432 496.575 54.4447C492.555 52.2463 488.065 51.1471 483.104 51.1471C478.142 51.1471 473.652 52.2463 469.633 54.4447C465.613 56.6432 462.442 59.7838 460.118 63.8666C457.794 67.9494 456.632 72.6289 456.632 77.9052C456.632 83.2443 457.763 87.9552 460.024 92.038C462.285 96.058 465.393 99.1986 469.35 101.46ZM490.357 93.4513C487.971 94.7704 485.396 95.4299 482.633 95.4299C478.299 95.4299 474.688 93.9224 471.799 90.9074C468.973 87.8296 467.56 83.4955 467.56 77.9052C467.56 74.1364 468.251 70.9644 469.633 68.3891C471.014 65.751 472.867 63.7724 475.19 62.4533C477.577 61.1343 480.152 60.4747 482.915 60.4747C485.678 60.4747 488.253 61.1343 490.64 62.4533C493.026 63.7724 494.942 65.751 496.386 68.3891C497.831 70.9644 498.553 74.1364 498.553 77.9052C498.553 81.6739 497.799 84.8774 496.292 87.5155C494.785 90.1536 492.806 92.1322 490.357 93.4513Z" fill="#303959"/>
</svg>
